<svg width="256" height="256" viewBox="0 0 256 256" fill="none" xmlns="http://www.w3.org/2000/svg">
<path d="M128 208.393C83.6004 208.393 47.6065 172.4 47.6065 128C47.6065 83.6001 83.6004 47.6059 128 47.6059C172.4 47.6059 208.392 83.6001 208.392 128C208.392 172.4 172.4 208.393 128 208.393ZM248.281 107.384L233.325 104.825C230.565 92.2251 225.601 80.4443 218.855 69.9173L227.628 57.5274C230.241 53.8338 229.815 48.7956 226.615 45.597L210.403 29.3853C207.203 26.185 202.165 25.7594 198.474 28.372L186.083 37.1448C175.554 30.3987 163.777 25.4353 151.173 22.6748L148.618 7.72041C147.854 3.26099 143.987 0.00012207 139.464 0.00012207H116.536C112.012 0.00012207 108.146 3.26099 107.384 7.72041L104.826 22.6748C92.2243 25.4353 80.4449 30.3987 69.9177 37.1448L57.5264 28.372C53.8344 25.7594 48.796 26.185 45.5966 29.3853L29.3847 45.597C26.1852 48.7956 25.7584 53.8338 28.371 57.5274L37.1438 69.9173C30.3982 80.4443 25.4351 92.2251 22.675 104.825L7.71994 107.384C3.26051 108.147 0 112.013 0 116.536V139.464C0 143.987 3.26051 147.854 7.71994 148.617L22.675 151.172C25.4351 163.776 30.3982 175.556 37.1438 186.082L28.371 198.474C25.7584 202.165 26.1852 207.204 29.3847 210.404L45.5966 226.615C48.796 229.815 53.8344 230.241 57.5264 227.629L69.9177 218.856C80.4449 225.601 92.2243 230.565 104.826 233.325L107.384 248.281C108.146 252.739 112.012 256 116.536 256H139.464C143.987 256 147.854 252.739 148.618 248.281L151.173 233.325C163.777 230.565 175.554 225.601 186.083 218.856L198.474 227.629C202.165 230.241 207.203 229.815 210.403 226.615L226.615 210.404C229.815 207.204 230.241 202.165 227.628 198.474L218.855 186.082C225.601 175.556 230.565 163.776 233.325 151.172L248.281 148.617C252.739 147.854 256 143.987 256 139.464V116.536C256 112.013 252.739 108.147 248.281 107.384Z" fill="#8B5CF6"/>
<path fill-rule="evenodd" clip-rule="evenodd" d="M127.999 184.31C127.999 184.31 176.265 173.465 176.265 119.241V95.4658C151.51 87.1226 127.999 71.6904 127.999 71.6904C127.934 71.7328 104.455 87.1341 79.7344 95.4658C79.7344 95.4658 79.7344 115.486 79.7344 119.241C79.7344 173.378 127.844 184.275 127.999 184.31ZM127.999 151.515C124.567 151.514 121.855 148.611 122.082 145.188L122.88 133.235C117.895 131.213 114.377 126.322 114.377 120.609C114.377 113.088 120.476 106.99 127.999 106.99C135.522 106.99 141.621 113.088 141.621 120.609C141.621 126.322 138.104 131.213 133.119 133.235L133.917 145.188C134.144 148.611 131.431 151.515 127.999 151.515Z" fill="#6FCF97"/>
</svg>
